<?xml version="1.0" encoding="iso-8859-1"?>
<!-- Generator: Adobe Illustrator 19.0.0, SVG Export Plug-In . SVG Version: 6.00 Build 0)  -->
<svg version="1.1" id="Layer_1" xmlns="http://www.w3.org/2000/svg" xmlns:xlink="http://www.w3.org/1999/xlink" x="0px" y="0px"
	 viewBox="0 0 508.1 508.1" style="enable-background:new 0 0 508.1 508.1;" xml:space="preserve">
<path style="fill:#FF7058;" d="M486.8,193.65H21.2c-11.7,0-21.2,9.4-21.2,21.1v45.4c0,11.7,9.5,21.2,21.2,21.2h465.7
	c11.7,0,21.2-9.5,21.2-21.2v-45.4C508,203.05,498.5,193.65,486.8,193.65z"/>
<path style="fill:#CDD6E0;" d="M269.7,0.05h-31.5c-11.7,0-21.2,9.5-21.2,21.2v224.9c0,11.7,9.5,21.2,21.2,21.2h31.5
	c11.7,0,21.2-9.5,21.2-21.2V21.25C290.9,9.55,281.4,0.05,269.7,0.05z"/>
<circle style="fill:#FFFFFF;" cx="254" cy="230.15" r="17.6"/>
<g>
	<path style="fill:#FFD15C;" d="M31.9,281.25v0.1h1.9C33.2,281.35,32.6,281.35,31.9,281.25z"/>
	<path style="fill:#FFD15C;" d="M73,480.15c3.4,16.3,17.2,27.9,33.1,27.9h295.8c15.9,0,29.7-11.6,33.1-27.9l38.2-184.6H34.9
		L73,480.15z M374.7,319.55c16.3,0,29.4,13.2,29.4,29.4s-13.2,29.4-29.4,29.4c-16.3,0-29.4-13.2-29.4-29.4
		S358.4,319.55,374.7,319.55z M314.3,410.85c16.3,0,29.4,13.2,29.4,29.4c0,16.3-13.2,29.4-29.4,29.4c-16.3,0-29.4-13.2-29.4-29.4
		S298.1,410.85,314.3,410.85z M254,319.55c16.3,0,29.4,13.2,29.4,29.4s-13.2,29.4-29.4,29.4c-16.3,0-29.4-13.2-29.4-29.4
		S237.7,319.55,254,319.55z M193.7,410.85c16.3,0,29.4,13.2,29.4,29.4c0,16.3-13.2,29.4-29.4,29.4s-29.4-13.2-29.4-29.4
		C164.2,424.05,177.4,410.85,193.7,410.85z M133.3,319.55c16.3,0,29.4,13.2,29.4,29.4s-13.2,29.4-29.4,29.4s-29.4-13.2-29.4-29.4
		S117.1,319.55,133.3,319.55z"/>
	<path style="fill:#FFD15C;" d="M474.1,281.35h2v-0.1C475.4,281.35,474.8,281.35,474.1,281.35z"/>
</g>
<polygon style="fill:#F8B64C;" points="34.9,295.45 473.2,295.45 476.1,281.35 31.9,281.35 "/>
<g>
</g>
<g>
</g>
<g>
</g>
<g>
</g>
<g>
</g>
<g>
</g>
<g>
</g>
<g>
</g>
<g>
</g>
<g>
</g>
<g>
</g>
<g>
</g>
<g>
</g>
<g>
</g>
<g>
</g>
</svg>
